<svg width="193" height="39" viewBox="0 0 193 39" fill="none" xmlns="http://www.w3.org/2000/svg">
<g clip-path="url(#clip0_7_78)">
<path d="M23.0926 38.5347C19.9642 39.0541 17.0205 36.9542 16.4372 33.826L11.8953 7.52277C11.3759 4.39442 13.4758 1.45063 16.604 0.867358C19.7323 0.347959 22.6761 2.44783 23.2594 5.57601L27.8012 31.8792C28.3206 35.0076 26.2208 37.9514 23.0926 38.5347Z" fill="#CC4C6E"/>
<path d="M39.1245 38.4914C35.9961 39.0108 33.0523 36.9109 32.4691 33.7827L27.9272 7.47951C27.3439 4.35133 29.4438 1.40754 32.572 0.824268C35.7003 0.304869 38.6441 2.40474 39.2274 5.53292L43.7693 31.8362C44.3525 34.9643 42.2527 37.9081 39.1245 38.4914Z" fill="#CC4C6E"/>
<path d="M3.80261 38.14C0.924926 36.8703 -0.425498 33.4887 0.844035 30.5472L12.3342 4.26465C13.6039 1.38697 16.9855 0.036545 19.9271 1.30608C22.8048 2.57578 24.1552 5.95739 22.8856 8.89894L11.3316 35.1816C10.0621 38.1232 6.68028 39.4097 3.80261 38.14Z" fill="#F3B541"/>
<path d="M19.77 38.0963C16.8924 36.8266 15.5419 33.445 16.8115 30.5035L28.3017 4.22095C29.5714 1.34327 32.953 -0.00715614 35.8945 1.26238C38.7722 2.53208 40.1226 5.91369 38.8531 8.85524L27.3629 35.1378C26.0295 38.0795 22.6477 39.366 19.77 38.0963Z" fill="#4CB3AA"/>
<path d="M35.7381 38.0534C32.8604 36.7837 31.51 33.402 32.7795 30.4605L44.3335 4.17781C45.6032 1.30013 48.9849 -0.0502968 51.9264 1.21924C54.8041 2.48894 56.1545 5.87055 54.885 8.8121L43.3309 35.0948C42.0614 38.0363 38.6796 39.3229 35.7381 38.0534Z" fill="#842C68"/>
<path d="M65.0506 12.4894C65.0499 12.2339 65.2412 12.1057 65.4328 12.1051L65.6883 12.1045C65.9438 12.1038 66.0717 12.1673 66.1362 12.4226L70.8901 22.5655C71.2756 23.3949 71.7254 24.4156 71.7254 24.4156L71.7893 24.4154C71.7893 24.4154 72.2335 23.3284 72.6147 22.5609L77.3139 12.3925C77.3772 12.2007 77.5685 12.0725 77.7601 12.072L78.0156 12.0713C78.2711 12.0706 78.3992 12.198 78.3999 12.4535L79.7199 28.2903C79.7206 28.5458 79.5934 28.7378 79.3379 28.7384L79.1463 28.739C78.8908 28.7396 78.7627 28.6122 78.762 28.3568L77.7069 16.0322C77.6408 15.202 77.637 13.7969 77.637 13.7969L77.5731 13.797C77.5731 13.797 77.1298 15.2034 76.7488 16.0348L72.4941 25.2439C72.4308 25.4357 72.2395 25.5639 72.0479 25.5644L71.6647 25.5655C71.4092 25.5662 71.2813 25.5026 71.2167 25.2473L66.9125 16.0613C66.5272 15.2958 66.0123 13.8281 66.0123 13.8281L65.9484 13.8283C65.9484 13.8283 65.9524 15.2974 65.8906 16.064L64.8381 28.4581C64.8388 28.7136 64.6475 28.8419 64.4559 28.8424L64.2004 28.8431C63.9449 28.8437 63.8168 28.7163 63.816 28.397L65.0506 12.4894Z" fill="white"/>
<path d="M88.1084 12.4275C88.1716 12.1718 88.363 12.1075 88.5546 12.1069L89.0017 12.1057C89.1933 12.1052 89.3851 12.1686 89.4497 12.4239L95.4324 28.2482C95.497 28.5035 95.4336 28.6953 95.1143 28.6961L94.8588 28.6968C94.6672 28.6973 94.4754 28.634 94.4108 28.3787L92.2884 22.9552L85.2625 22.9741L83.2332 28.4088C83.17 28.6644 82.9786 28.7288 82.787 28.7293L82.5315 28.73C82.2121 28.7309 82.0839 28.5396 82.2109 28.2838L88.1084 12.4275ZM91.9665 21.998L89.3934 15.2344C89.136 14.5325 88.7493 13.2561 88.7493 13.2561L88.6855 13.2563C88.6855 13.2563 88.3057 14.5348 88.0521 15.238L85.5154 22.0154L91.9665 21.998Z" fill="white"/>
<path d="M100.843 21.4631L95.454 12.5355C95.2617 12.2805 95.3889 12.0886 95.7083 12.0877L95.9638 12.087C96.1554 12.0865 96.3472 12.1498 96.4116 12.3413L100.197 18.6545C100.646 19.4836 101.224 20.504 101.224 20.504L101.288 20.5038C101.288 20.5038 101.796 19.4166 102.305 18.6488L106.056 12.3153C106.183 12.1234 106.311 12.0592 106.503 12.0586L106.758 12.058C107.078 12.0571 107.206 12.2484 107.015 12.5044L101.674 21.4609L101.692 28.2952C101.693 28.5507 101.565 28.6788 101.31 28.6795L101.246 28.6796C100.991 28.6803 100.862 28.5529 100.862 28.2974L100.843 21.4631Z" fill="white"/>
<path d="M110.272 12.4316C110.271 12.1761 110.399 12.048 110.654 12.0473L110.91 12.0466C111.101 12.0461 111.293 12.1095 111.422 12.3007L120.781 25.1139C121.358 25.8788 122.128 27.2181 122.128 27.2181L122.192 27.2179C122.192 27.2179 122.061 25.9408 122.059 25.1105L122.025 12.3999C122.024 12.1445 122.151 12.0164 122.407 12.0157L122.598 12.0152C122.854 12.0145 122.982 12.1419 122.983 12.3974L123.025 28.2376C123.026 28.4931 122.899 28.6212 122.643 28.6219L122.388 28.6226C122.196 28.6231 122.004 28.5597 121.876 28.3685L112.516 15.5553C111.939 14.7904 111.169 13.4511 111.169 13.4511L111.105 13.4513C111.105 13.4513 111.236 14.7284 111.239 15.5587L111.273 28.2054C111.273 28.4609 111.146 28.589 110.89 28.5896L110.699 28.5902C110.443 28.5909 110.315 28.4634 110.315 28.208L110.272 12.4316Z" fill="white"/>
<path d="M135.244 11.6619C140.035 11.649 143.685 15.3438 143.698 20.1342C143.711 25.0523 140.081 28.8944 135.291 28.9073C130.5 28.9202 126.849 25.0977 126.836 20.1795C126.823 15.3891 130.454 11.6748 135.244 11.6619ZM135.288 27.9492C139.504 27.9379 142.624 24.5443 142.612 20.1371C142.601 15.8577 139.462 12.6086 135.247 12.62C131.031 12.6313 127.91 15.8972 127.922 20.1766C127.934 24.5838 131.072 27.9606 135.288 27.9492Z" fill="white"/>
<path d="M154.725 11.6094C159.516 11.5965 163.166 15.2913 163.179 20.0817C163.192 24.9998 159.562 28.8419 154.772 28.8548C149.981 28.8677 146.33 25.0452 146.317 20.1271C146.304 15.3367 149.935 11.6223 154.725 11.6094ZM154.769 27.8968C158.985 27.8854 162.105 24.4918 162.093 20.0846C162.082 15.8052 158.943 12.5561 154.728 12.5675C150.512 12.5788 147.391 15.8447 147.403 20.1241C147.415 24.5313 150.553 27.9081 154.769 27.8968Z" fill="white"/>
<path d="M169.802 12.7826L163.99 12.7982C163.734 12.7989 163.606 12.6715 163.606 12.416L163.605 12.2883C163.605 12.0328 163.732 11.9047 163.987 11.904L176.634 11.87C176.89 11.8693 177.018 11.9967 177.018 12.2522L177.019 12.3799C177.019 12.6354 176.892 12.7635 176.637 12.7642L170.824 12.7798L170.865 28.1091C170.866 28.3646 170.739 28.4927 170.483 28.4934L170.228 28.494C169.972 28.4947 169.844 28.3673 169.843 28.1118L169.802 12.7826Z" fill="white"/>
<path d="M179.637 12.245C179.636 11.9896 179.764 11.8615 180.019 11.8608L180.211 11.8603C180.466 11.8596 180.595 11.987 180.595 12.2425L180.615 19.6516L191.282 19.6229L191.262 12.2138C191.261 11.9583 191.389 11.8302 191.644 11.8295L191.836 11.829C192.091 11.8283 192.219 11.9557 192.22 12.2112L192.263 28.0514C192.263 28.3069 192.136 28.435 191.88 28.4357L191.689 28.4362C191.433 28.4369 191.305 28.3095 191.304 28.054L191.284 20.581L180.682 20.6095L180.702 28.0826C180.702 28.338 180.575 28.4661 180.32 28.4668L180.128 28.4673C179.872 28.468 179.744 28.3406 179.744 28.0851L179.701 12.2449L179.637 12.245Z" fill="white"/>
</g>
<defs>
<clipPath id="clip0_7_78">
<rect width="192" height="37.8124" fill="white" transform="translate(0.252563 0.847412) rotate(-0.154211)"/>
</clipPath>
</defs>
</svg>
