<svg width="41" height="41" viewBox="0 0 41 41" fill="none" xmlns="http://www.w3.org/2000/svg">
<circle cx="20.7047" cy="20.8521" r="20" transform="rotate(-0.154211 20.7047 20.8521)" fill="white"/>
<path d="M16.0002 12.8648C11.4074 12.8772 7.69328 16.6113 7.70564 21.2041C7.718 25.7969 11.4522 29.5111 16.045 29.4987C20.6378 29.4863 24.3519 25.7522 24.3395 21.1594C24.338 20.5887 24.2741 20.0321 24.1641 19.4964L24.1174 19.3117L16.0176 19.3335L16.0251 22.1059L21.5697 22.0909C21.1355 24.7143 18.7844 26.719 16.0375 26.7264C12.9741 26.7346 10.4862 24.2601 10.478 21.1967C10.4697 18.1333 12.9443 15.6454 16.0077 15.6371C17.3938 15.6334 18.6589 16.1429 19.6338 16.9812L21.6154 15.0306C20.1332 13.6808 18.1626 12.859 16.0002 12.8648ZM28.9476 16.5264L28.9551 19.2987L26.1827 19.3062L26.1877 21.1544L28.96 21.1469L28.9675 23.9192L30.8157 23.9143L30.8082 21.142L33.5805 21.1345L33.5756 19.2863L30.8033 19.2938L30.7958 16.5214L28.9476 16.5264Z" fill="black"/>
</svg>
