<svg width="41" height="41" viewBox="0 0 41 41" fill="none" xmlns="http://www.w3.org/2000/svg">
<circle cx="20.7045" cy="20.6771" r="20" transform="rotate(-0.154211 20.7045 20.6771)" fill="white"/>
<path d="M16.4704 9.6885C12.7224 9.69858 9.68313 12.7543 9.69322 16.5022L9.71854 25.9113C9.72863 29.6592 12.7843 32.6985 16.5323 32.6884L25.9413 32.6631C29.6893 32.653 32.7285 29.5973 32.7185 25.8494L32.6931 16.4403C32.683 12.6924 29.6274 9.65309 25.8794 9.66317L16.4704 9.6885ZM27.4588 13.8408C28.0338 13.8392 28.5056 14.3084 28.5071 14.8834C28.5087 15.4584 28.0395 15.9301 27.4645 15.9317C26.8895 15.9332 26.4178 15.464 26.4162 14.889C26.4147 14.314 26.8838 13.8423 27.4588 13.8408ZM21.1904 15.4258C24.3633 15.4173 26.9473 17.9874 26.9558 21.1603C26.9644 24.3333 24.3943 26.9172 21.2213 26.9258C18.0484 26.9343 15.4644 24.3642 15.4559 21.1913C15.4473 18.0183 18.0174 15.4344 21.1904 15.4258ZM21.1932 16.4713C18.6005 16.4782 16.4943 18.5957 16.5013 21.1885C16.5083 23.7812 18.6258 25.8873 21.2185 25.8803C23.8112 25.8733 25.9173 23.7558 25.9104 21.1631C25.9034 18.5704 23.7859 16.4643 21.1932 16.4713Z" fill="black"/>
</svg>
