<svg width="41" height="41" viewBox="0 0 41 41" fill="none" xmlns="http://www.w3.org/2000/svg">
<circle cx="20.7043" cy="20.5023" r="20" transform="rotate(-0.154211 20.7043 20.5023)" fill="white"/>
<path d="M33.2738 12.9294C32.3335 13.3499 31.3225 13.6339 30.2604 13.7656C31.3407 13.1104 32.1738 12.0808 32.5612 10.8532C31.5471 11.4575 30.4233 11.898 29.2287 12.1356C28.2689 11.1187 26.9039 10.4856 25.3922 10.4897C22.4938 10.4975 20.1485 12.8554 20.1563 15.7538C20.1574 16.1639 20.2054 16.5662 20.2963 16.9487C15.9324 16.7417 12.0596 14.6584 9.46122 11.4896C9.01019 12.2681 8.7548 13.1712 8.7574 14.136C8.7623 15.9563 9.6924 17.5593 11.1051 18.4969C10.2417 18.4719 9.43251 18.2397 8.72442 17.8471C8.72448 17.8705 8.72454 17.89 8.7246 17.9135C8.73144 20.4564 10.5457 22.5726 12.9494 23.0506C12.5083 23.1728 12.0475 23.2366 11.5671 23.2379C11.2272 23.2388 10.899 23.2084 10.5785 23.1468C11.2521 25.227 13.1937 26.7452 15.4907 26.7781C13.7015 28.1931 11.4381 29.0351 8.97721 29.0417C8.55143 29.0429 8.1373 29.0206 7.72702 28.9748C10.0513 30.4568 12.8154 31.3166 15.7802 31.3086C25.4364 31.2826 30.6961 23.2684 30.6775 16.3348C30.6768 16.1044 30.6723 15.8778 30.66 15.6513C31.6854 14.9142 32.5735 13.986 33.2738 12.9294Z" fill="black"/>
</svg>
